<svg width="11" height="11" viewBox="0 0 11 11" fill="none" xmlns="http://www.w3.org/2000/svg">
<path d="M9.61292 0.530324C10.2963 1.21374 10.2963 2.32178 9.61292 3.0052L4.02722 8.59089C3.85996 8.75815 3.65552 8.88348 3.43057 8.95666L1.9726 9.43093C1.19531 9.68378 0.459458 8.94793 0.712307 8.17064L1.18658 6.71267C1.25976 6.48772 1.38509 6.28328 1.55235 6.11602L7.13804 0.530325C7.82146 -0.153092 8.9295 -0.153094 9.61292 0.530324ZM7.84515 1.23743L2.25946 6.82312C2.2037 6.87888 2.16192 6.94703 2.13753 7.02201L1.66326 8.47998L3.12123 8.00571C3.19621 7.98132 3.26436 7.93954 3.32012 7.88379L8.90581 2.29809C9.1987 2.0052 9.1987 1.53032 8.90581 1.23743C8.61292 0.944538 8.13804 0.944538 7.84515 1.23743ZM5.00011 9.49999C4.72397 9.49999 4.50011 9.72385 4.50011 9.99999C4.50011 10.2761 4.72397 10.5 5.00011 10.5H10.5001C10.7763 10.5 11.0001 10.2761 11.0001 10C11.0001 9.72385 10.7763 9.49999 10.5001 9.49999H5.00011Z" fill="white"/>
</svg>
