<svg width="9" height="9" viewBox="0 0 9 9" fill="none" xmlns="http://www.w3.org/2000/svg">
<path d="M2.37868 1.62868C2.94129 1.06607 3.70435 0.75 4.5 0.75C5.29565 0.75 6.05871 1.06607 6.62132 1.62868C7.18393 2.19129 7.5 2.95435 7.5 3.75C7.5 4.91177 6.7441 6.03909 5.91527 6.91397C5.50852 7.34331 5.1005 7.6948 4.79375 7.93907C4.67958 8.02998 4.57987 8.1057 4.5 8.16472C4.42013 8.1057 4.32042 8.02998 4.20625 7.93907C3.8995 7.6948 3.49148 7.34331 3.08473 6.91397C2.2559 6.03909 1.5 4.91177 1.5 3.75C1.5 2.95435 1.81607 2.19129 2.37868 1.62868ZM4.29178 8.93688C4.29189 8.93696 4.29199 8.93702 4.5 8.625L4.29199 8.93702C4.41795 9.02099 4.58205 9.02099 4.70801 8.93702L4.5 8.625C4.70801 8.93702 4.70811 8.93696 4.70822 8.93688L4.7085 8.9367L4.70929 8.93617L4.71179 8.93449L4.72038 8.92868C4.72768 8.92372 4.7381 8.9166 4.75142 8.90737C4.77805 8.88892 4.81633 8.86205 4.86458 8.8272C4.96105 8.75753 5.09761 8.65583 5.26094 8.52578C5.587 8.26614 6.02273 7.89106 6.45973 7.42978C7.3184 6.52341 8.25 5.21323 8.25 3.75C8.25 2.75544 7.85491 1.80161 7.15165 1.09835C6.44839 0.395088 5.49456 0 4.5 0C3.50544 0 2.55161 0.395088 1.84835 1.09835C1.14509 1.80161 0.75 2.75544 0.75 3.75C0.75 5.21323 1.6816 6.52341 2.54027 7.42978C2.97727 7.89106 3.413 8.26614 3.73906 8.52578C3.90239 8.65583 4.03895 8.75753 4.13542 8.8272C4.18367 8.86205 4.22195 8.88892 4.24858 8.90737C4.2619 8.9166 4.27232 8.92372 4.27962 8.92868L4.28821 8.93449L4.29071 8.93617L4.2915 8.9367L4.29178 8.93688ZM3.75 3.75C3.75 3.33579 4.08579 3 4.5 3C4.91421 3 5.25 3.33579 5.25 3.75C5.25 4.16421 4.91421 4.5 4.5 4.5C4.08579 4.5 3.75 4.16421 3.75 3.75ZM4.5 2.25C3.67157 2.25 3 2.92157 3 3.75C3 4.57843 3.67157 5.25 4.5 5.25C5.32843 5.25 6 4.57843 6 3.75C6 2.92157 5.32843 2.25 4.5 2.25Z" fill="white"/>
</svg>
